<svg width="40" height="40" viewBox="0 0 40 40" fill="none" xmlns="http://www.w3.org/2000/svg">
<g id="phone-call 1" clip-path="url(#clip0_2_104)">
<g id="Group">
<g id="Group_2">
<path id="Vector" d="M34.1397 5.85524C26.328 -1.95405 13.6647 -1.95218 5.85537 5.85954C-1.95393 13.6713 -1.95206 26.3345 5.85966 34.1438C13.6714 41.9531 26.3347 41.9513 34.144 34.1395C37.8944 30.3879 40.0008 25.3 39.9997 19.9952C39.9986 14.6913 37.8907 9.60509 34.1397 5.85524ZM30.289 27.8593C30.2881 27.8602 30.2872 27.8611 30.2863 27.862V27.8553L29.2729 28.862C27.9624 30.1891 26.0537 30.7351 24.2396 30.302C22.4118 29.8127 20.6744 29.034 19.0929 27.9953C17.6237 27.0563 16.2622 25.9587 15.0329 24.722C13.9019 23.5992 12.8858 22.3664 11.9996 21.042C11.0302 19.6168 10.2629 18.0643 9.71959 16.4286C9.09669 14.507 9.61287 12.3985 11.0529 10.982L12.2396 9.79532C12.5695 9.46392 13.1056 9.46274 13.4369 9.79267C13.4378 9.79352 13.4387 9.79438 13.4396 9.79532L17.1862 13.542C17.5176 13.8719 17.5188 14.408 17.1889 14.7393C17.188 14.7402 17.1872 14.741 17.1862 14.742L14.9862 16.942C14.355 17.5663 14.2756 18.5585 14.7996 19.2753C15.5953 20.3674 16.4758 21.3949 17.4329 22.3487C18.5001 23.4204 19.6601 24.3953 20.8996 25.262C21.6158 25.7616 22.5867 25.6774 23.2062 25.062L25.3329 22.902C25.6628 22.5706 26.1989 22.5695 26.5302 22.8994C26.5311 22.9002 26.5319 22.9011 26.5329 22.902L30.2862 26.662C30.6177 26.9919 30.6189 27.5279 30.289 27.8593Z" fill="#CACBCF"/>
</g>
</g>
</g>
<defs>
<clipPath id="clip0_2_104">
<rect width="40" height="40" fill="white"/>
</clipPath>
</defs>
</svg>
